<!DOCTYPE svg PUBLIC "-//W3C//DTD SVG 1.1//EN" "http://www.w3.org/Graphics/SVG/1.1/DTD/svg11.dtd">
<!-- Uploaded to: SVG Repo, www.svgrepo.com, Transformed by: SVG Repo Mixer Tools -->
<svg width="800px" height="800px" viewBox="0 0 32 32" id="svg5" version="1.1" xmlns="http://www.w3.org/2000/svg" xmlns:svg="http://www.w3.org/2000/svg" fill="#000000">
<g id="SVGRepo_bgCarrier" stroke-width="0"/>
<g id="SVGRepo_tracerCarrier" stroke-linecap="round" stroke-linejoin="round"/>
<g id="SVGRepo_iconCarrier"> <defs id="defs2"/> <g id="layer1" transform="translate(-156,-340)"> <path d="m 169.5,357.01367 a 1,1 0 0 0 -0.70703,0.29297 1,1 0 0 0 0,1.41406 l 5,5 a 1,1 0 0 0 1.41406,0 1,1 0 0 0 0,-1.41406 l -5,-5 A 1,1 0 0 0 169.5,357.01367 Z" id="path453523" style="color:#79ca2e;fill:#79ca2e;fill-rule:evenodd;stroke-linecap:round;stroke-linejoin:round;stroke-miterlimit:4.1;-inkscape-stroke:none"/> <path d="m 169.5,351.51367 a 1,1 0 0 0 -0.70703,0.29297 1,1 0 0 0 0,1.41406 l 5,5 a 1,1 0 0 0 1.41406,0 1,1 0 0 0 0,-1.41406 l -5,-5 A 1,1 0 0 0 169.5,351.51367 Z" id="path453515" style="color:#79ca2e;fill:#79ca2e;fill-rule:evenodd;stroke-linecap:round;stroke-linejoin:round;stroke-miterlimit:4.1;-inkscape-stroke:none"/> <path d="m 168.07812,342.01562 a 1.0001,1.0001 0 0 0 -0.48437,0.084 l -9,4 a 1.0001,1.0001 0 0 0 -0.58398,1.05469 l 1,7 a 1.0001,1.0001 0 0 0 1.4375,0.7539 L 163,353.63281 v 15.38086 a 1.0001,1.0001 0 0 0 1,1 h 16 a 1.0001,1.0001 0 0 0 1,-1 v -15.38086 l 2.55273,1.27539 a 1.0001,1.0001 0 0 0 1.4375,-0.7539 l 1,-7 a 1.0001,1.0001 0 0 0 -0.58398,-1.05469 l -9,-4 A 1.0001,1.0001 0 0 0 175,343.01367 c 0,1.6687 -1.3313,3 -3,3 -1.6687,0 -3,-1.3313 -3,-3 a 1.0001,1.0001 0 0 0 -0.92188,-0.99805 z m -0.79101,2.40821 c 0.62208,2.05393 2.46313,3.58984 4.71289,3.58984 2.24976,0 4.09081,-1.53591 4.71289,-3.58984 l 7.18945,3.19531 -0.69726,4.87891 -2.75781,-1.37891 A 1.0001,1.0001 0 0 0 179,352.01367 v 16 h -14 v -16 a 1.0001,1.0001 0 0 0 -1.44727,-0.89453 l -2.75781,1.37891 -0.69726,-4.87891 z" id="path453497" style="color:#79ca2e;fill:#79ca2e;fill-rule:evenodd;stroke-linecap:round;stroke-linejoin:round;stroke-miterlimit:4.1;-inkscape-stroke:none"/> </g> </g>
</svg>