<!DOCTYPE svg PUBLIC "-//W3C//DTD SVG 1.1//EN" "http://www.w3.org/Graphics/SVG/1.1/DTD/svg11.dtd">
<!-- Uploaded to: SVG Repo, www.svgrepo.com, Transformed by: SVG Repo Mixer Tools -->
<svg fill="#FFFFFF" version="1.1" id="Layer_1" xmlns="http://www.w3.org/2000/svg" xmlns:xlink="http://www.w3.org/1999/xlink" viewBox="0 0 512 512" xml:space="preserve" width="800px" height="800px" stroke="#FFFFFF">
<g id="SVGRepo_bgCarrier" stroke-width="0"/>
<g id="SVGRepo_tracerCarrier" stroke-linecap="round" stroke-linejoin="round"/>
<g id="SVGRepo_iconCarrier"> <g> <g> <g> <path d="M256,297.674c22.979,0,41.674-18.695,41.674-41.674S278.979,214.326,256,214.326S214.326,233.021,214.326,256 S233.021,297.674,256,297.674z"/> <path d="M446.512,0h-256v135.774c19.466-10.645,41.782-16.704,65.488-16.704c35.448,0,67.792,13.542,92.135,35.721H512V65.488 C512,29.378,482.622,0,446.512,0z M470.326,104.933c0,9.864-7.997,17.86-17.86,17.86h-47.628c-9.864,0-17.86-7.997-17.86-17.86 V57.305c0-9.864,7.997-17.86,17.86-17.86h47.628c9.864,0,17.86,7.997,17.86,17.86V104.933z"/> <path d="M256,357.209c55.807,0,101.209-45.402,101.209-101.209S311.807,154.791,256,154.791S154.791,200.193,154.791,256 S200.193,357.209,256,357.209z M256,178.605c42.676,0,77.395,34.72,77.395,77.395s-34.72,77.395-77.395,77.395 s-77.395-34.72-77.395-77.395S213.324,178.605,256,178.605z"/> <path d="M92.368,0h-26.88C29.378,0,0,29.378,0,65.488v89.302h92.368V0z"/> <path d="M392.93,256c0,75.503-61.427,136.93-136.93,136.93S119.07,331.503,119.07,256c0-23.707,6.058-46.023,16.704-65.488H0v256 C0,482.622,29.378,512,65.488,512h381.023c36.11,0,65.488-29.378,65.488-65.488v-256H376.226 C386.872,209.977,392.93,232.293,392.93,256z"/> <rect x="128.095" width="26.701" height="154.791"/> </g> </g> </g> </g>
</svg>